<svg xmlns="http://www.w3.org/2000/svg" viewBox="0 0 49.3 40" enable-background="new 0 0 49.3 40"><path fill="#fff" d="M25.6 0C14.7 0 9.1 7.8 9.1 14.4c0 4 1.5 7.5 4.7 8.8.5.2 1 0 1.2-.6.1-.4.4-1.4.5-1.8.2-.6.1-.8-.3-1.3-.9-1.1-1.5-2.5-1.5-4.5C13.7 9.2 18 4 25 4c6.2 0 9.6 3.8 9.6 8.8 0 6.6-2.9 12.2-7.3 12.2-2.4 0-4.2-2-3.6-4.4.7-2.9 2-6.1 2-8.2 0-1.9-1-3.4-3.1-3.4-2.5 0-4.4 2.5-4.4 5.9 0 2.2.7 3.6.7 3.6s-2.5 10.7-3 12.5c-.9 3.7-.1 8.3-.1 8.7 0 .3.4.3.5.1.2-.3 3.2-3.9 4.1-7.5.3-1 1.6-6.3 1.6-6.3.8 1.5 3.1 2.9 5.6 2.9C35 28.9 40 22.2 40 13.2 40.1 6.4 34.3 0 25.6 0z"/></svg>